<svg id="svg" version="1.1" xmlns="http://www.w3.org/2000/svg" style="display: block;" viewBox="0 0 240 240"><path d="M0 0 C79.2 0 158.4 0 240 0 C240 79.2 240 158.4 240 240 C160.8 240 81.6 240 0 240 C0 160.8 0 81.6 0 0 Z " transform="translate(0,0)" style="fill: #D8AF93;"/><path d="M0 0 C1.04961914 0.00572021 2.09923828 0.01144043 3.18066406 0.01733398 C21.47542021 0.4336336 36.64730091 7.94302096 49.6796875 20.671875 C62.63141485 34.26180341 69.07334677 51.32405301 68.84301758 69.96313477 C68.17454163 88.44710887 61.26849979 104.7848136 48.16796875 117.91015625 C44.16787613 121.61933304 40.06148611 124.71505937 35.375 127.5 C34.60929688 127.95890625 33.84359375 128.4178125 33.0546875 128.890625 C17.14674536 137.60586723 0.62054821 137.10404489 -17.03444386 137.03730202 C-20.6033577 137.0270469 -24.17223407 137.03660105 -27.7411499 137.04284668 C-33.7256216 137.05008345 -39.70989454 137.0406368 -45.69433594 137.02148438 C-52.58545112 136.99968317 -59.47609335 137.00680627 -66.36719728 137.02879 C-72.3201048 137.04701048 -78.27287099 137.04947124 -84.22579741 137.03903532 C-87.76560317 137.03284179 -91.30518736 137.03184986 -94.84497833 137.04518127 C-98.79039053 137.05900843 -102.73528289 137.0397819 -106.68066406 137.01757812 C-108.40938751 137.02972351 -108.40938751 137.02972351 -110.17303467 137.04211426 C-122.263776 136.91668698 -132.68009059 132.99685074 -141.5625 124.6875 C-150.66497189 114.95727143 -154.28411407 103.58344764 -153.92578125 90.4765625 C-153.23681086 81.36783713 -149.50333054 75.33414576 -143.26953125 68.76953125 C-136.19775619 62.70054851 -128.20091181 59.54564233 -118.9909668 59.26074219 C-94.17351723 58.42635522 -73.97975908 47.78234701 -56.625 30.5 C-55.06640996 28.80709245 -53.52361969 27.0994483 -52 25.375 C-38.16167644 9.78530216 -21.25176651 -0.13552547 0 0 Z " transform="translate(162.625,34.5)" style="fill: #E73438;"/><path d="M0 0 C79.2 0 158.4 0 240 0 C240 30.03 240 60.06 240 91 C239.67 91 239.34 91 239 91 C238.8040625 90.1028125 238.608125 89.205625 238.40625 88.28125 C233.25758456 66.79888729 222.23697953 49.73315265 203.6875 37.25 C186.07381775 26.60788709 165.72410203 23.67704672 145.7734375 28.02734375 C132.07567955 31.55813229 121.00112774 37.75299399 110.77734375 47.49609375 C109 49 109 49 107 49 C106.773125 49.53625 106.54625 50.0725 106.3125 50.625 C104.54429911 53.82460161 102.46329797 56.29037223 100 59 C99.34 59 98.68 59 98 59 C97.62101562 59.87398437 97.62101562 59.87398437 97.234375 60.765625 C90.95806527 72.12654008 74.35477539 79.25264964 62.52734375 82.98828125 C55.68740886 84.71216728 48.55485659 85.2151099 41.53808594 85.74926758 C27.38390451 86.9941716 17.9582171 92.41607541 8.41015625 102.71484375 C4.36825745 107.73957508 2.7936661 113.89752707 1 120 C0.67 120 0.34 120 0 120 C0 80.4 0 40.8 0 0 Z " transform="translate(0,0)" style="fill: #000000;"/><path d="M0 0 C0.33 0 0.66 0 1 0 C1 30.03 1 60.06 1 91 C-78.2 91 -157.4 91 -239 91 C-239 68.56 -239 46.12 -239 23 C-238.67 23 -238.34 23 -238 23 C-237.79246094 23.81082031 -237.58492187 24.62164062 -237.37109375 25.45703125 C-233.46073189 39.51142807 -226.64526236 50.13311035 -214.125 57.75 C-202.97043283 63.96090757 -192.95229268 65.1481018 -180.36767578 65.16113281 C-179.21377853 65.16609772 -178.05988129 65.17106262 -176.87101746 65.17617798 C-173.06244299 65.19075235 -169.25391025 65.19759554 -165.4453125 65.203125 C-163.4568045 65.20742566 -161.4682965 65.21172688 -159.47978866 65.2160995 C-153.93543378 65.22789271 -148.39108887 65.2354408 -142.84672272 65.2388947 C-135.72281519 65.2433591 -128.59910108 65.26083725 -121.47525227 65.2898953 C-115.93943092 65.31167564 -110.40366329 65.32160775 -104.86779964 65.32293582 C-101.57583422 65.32397312 -98.28408973 65.33114588 -94.9921608 65.34775543 C-66.62009243 65.4806318 -42.16627231 62.68489822 -20.86328125 42.0234375 C-9.26625967 30.18181855 -3.81201151 15.78044988 0 0 Z " transform="translate(239,149)" style="fill: #000000;"/><path d="M0 0 C15.07204552 12.99437369 26.20308856 30.51105746 28.17626953 50.68945312 C29.5313562 72.8565339 23.78764362 94.16309927 9.1081543 111.15942383 C-3.77958983 125.54663564 -21.58341169 135.69456367 -41.03515625 137.52734375 C-45.11716406 137.68389419 -49.19705228 137.69472768 -53.28173828 137.7043457 C-54.50058212 137.7109169 -55.71942596 137.7174881 -56.97520447 137.72425842 C-60.99779514 137.74392408 -65.02034609 137.75564939 -69.04296875 137.765625 C-70.43538303 137.76967755 -71.82779713 137.77379461 -73.22021103 137.77797508 C-79.76573129 137.79699924 -86.31124049 137.8112354 -92.85678303 137.81958705 C-100.37810327 137.82934588 -107.89912817 137.85564141 -115.42034447 137.89608794 C-121.25673628 137.92638236 -127.09304404 137.9410685 -132.92951286 137.94436806 C-136.40472255 137.94670355 -139.87961577 137.95546546 -143.35474014 137.98082924 C-147.24065543 138.00873602 -151.12619093 138.00423833 -155.01220703 137.99731445 C-156.14201492 138.01012451 -157.27182281 138.02293457 -158.43586731 138.03613281 C-173.73334319 137.93744496 -186.58356121 132.41872574 -197.671875 122.0546875 C-208.39135548 110.59104474 -212.65310462 96.29976212 -212.34375 80.83203125 C-211.14205034 67.96319697 -204.34799251 58.5609588 -194.65039062 50.43652344 C-186.37460632 44.39501547 -177.20934271 42.78626936 -167.22265625 42.02734375 C-144.94727042 39.87481976 -127.6237725 31.85949597 -112.03515625 15.52734375 C-110.96871387 14.12923269 -109.92566376 12.71287793 -108.91015625 11.27734375 C-96.87347531 -4.36515325 -77.23351358 -14.54288104 -57.87890625 -17.19140625 C-36.92920536 -19.26335469 -16.34489699 -13.31572689 0 0 Z M-74.03515625 -3.47265625 C-75.10507813 -2.99828125 -76.175 -2.52390625 -77.27734375 -2.03515625 C-88.37503365 3.39618375 -96.36221877 11.55827826 -104.5559082 20.5534668 C-119.10915794 36.48956257 -138.55073532 49.67683358 -160.85546875 50.703125 C-161.55051514 50.72415283 -162.24556152 50.74518066 -162.96166992 50.7668457 C-175.8067069 51.19334943 -186.02889217 54.11896896 -195.16015625 63.65234375 C-202.08571265 71.83829835 -203.9708432 79.89968687 -203.48046875 90.48828125 C-202.53334056 101.61571471 -196.99502474 111.03684219 -188.90234375 118.4921875 C-181.4758089 124.61196274 -173.43038397 128.63015525 -163.71977234 128.67451477 C-162.64211105 128.68167007 -161.56444977 128.68882538 -160.45413208 128.69619751 C-159.27648285 128.69888641 -158.09883362 128.70157532 -156.88549805 128.7043457 C-155.64104416 128.7109169 -154.39659027 128.7174881 -153.11442566 128.72425842 C-148.98773964 128.74399817 -144.86109256 128.75566512 -140.734375 128.765625 C-139.30827122 128.76967532 -137.88216762 128.77379232 -136.45606422 128.77797508 C-129.74714506 128.79702801 -123.03823683 128.81125272 -116.32929581 128.81958705 C-108.6177965 128.82932747 -100.90658667 128.85556222 -93.19518918 128.89608794 C-87.21615269 128.92641579 -81.23719831 128.94107201 -75.2580865 128.94436806 C-71.69669882 128.94670177 -68.13562027 128.95543811 -64.57431602 128.98082924 C-38.05774345 129.16000501 -18.87877846 126.28566514 1.1484375 107.4765625 C14.48069731 93.6765041 19.63370115 75.59269857 19.43798828 56.82739258 C18.76054821 37.87921062 9.79178019 21.72052704 -3.78515625 8.83984375 C-20.08524757 -5.20597962 -37.38349963 -8.96130827 -58.37890625 -7.71191406 C-64.00314244 -7.20531926 -68.88123429 -5.83194478 -74.03515625 -3.47265625 Z " transform="translate(212.03515625,42.47265625)" style="fill: #F6D4C2;"/><path d="M0 0 C0.66 0.226875 1.32 0.45375 2 0.6875 C4.87199032 0.8366375 4.87199032 0.8366375 7 0.0625 C9 -0.3125 9 -0.3125 12 1.6875 C12.1875 4.0625 12.1875 4.0625 12 6.6875 C12 11.0656114 12.20765593 11.51966828 15.0625 14.5 C16.91002624 16.37577724 16.91002624 16.37577724 19 17.6875 C22.70054409 17.6238921 22.70054409 17.6238921 26 16.6875 C26.99 17.3475 27.98 18.0075 29 18.6875 C29.1875 21.0625 29.1875 21.0625 29 23.6875 C29 28.26382152 29.47655275 28.81956606 32.5 32 C35.45405396 34.89968957 35.45405396 34.89968957 39.3125 35.98046875 C41.74762144 35.70802083 41.74762144 35.70802083 45 34.6875 C46.87602848 38.54991157 47.03113005 40.5629798 46 44.6875 C46.020625 45.574375 46.04125 46.46125 46.0625 47.375 C46 49.6875 46 49.6875 44 51.6875 C42.989375 51.378125 41.97875 51.06875 40.9375 50.75 C36.1771815 50.67443939 35.40534716 51.53715543 32 54.6875 C28.41829741 58.47876433 28.41829741 58.47876433 28.0625 63.625 C28.5265625 65.1409375 28.5265625 65.1409375 29 66.6875 C28.34 67.3475 27.68 68.0075 27 68.6875 C24.66327016 68.3788753 22.33006911 68.04293427 20 67.6875 C18.63875 67.996875 18.63875 67.996875 17.25 68.3125 C15 68.6875 15 68.6875 13.125 67.5 C12 65.6875 12 65.6875 12.3125 63.6875 C12.539375 63.0275 12.76625 62.3675 13 61.6875 C13.32527608 58.61889369 13.32527608 58.61889369 11.25 56.64453125 C10.13625 55.58298828 10.13625 55.58298828 9 54.5 C8.2575 53.78457031 7.515 53.06914062 6.75 52.33203125 C5.88375 51.51798828 5.88375 51.51798828 5 50.6875 C2.03165468 52.01104791 0.07367144 53.42964666 -2.125 55.8125 C-3.6328125 57.4453125 -3.6328125 57.4453125 -5 58.6875 C-5.66 58.6875 -6.32 58.6875 -7 58.6875 C-6.34 59.6775 -5.68 60.6675 -5 61.6875 C-4.75 64.25 -4.75 64.25 -5 66.6875 C-5.66 67.3475 -6.32 68.0075 -7 68.6875 C-9.01586418 68.45990243 -11.032258 68.22469085 -13.03515625 67.90234375 C-15.07886404 67.55815345 -15.07886404 67.55815345 -17.3125 68.3125 C-19 68.6875 -19 68.6875 -20.8125 67.6875 C-21.4003125 66.6975 -21.4003125 66.6975 -22 65.6875 C-21.71125 64.65625 -21.4225 63.625 -21.125 62.5625 C-20.58461488 58.67604182 -20.58461488 58.67604182 -22.92578125 56.23046875 C-25.22087407 53.96393074 -27.55424945 51.78998732 -30 49.6875 C-30.99 50.3475 -31.98 51.0075 -33 51.6875 C-35.6875 51.3125 -35.6875 51.3125 -38 50.6875 C-38.95528629 45.43342541 -39.27065423 40.91130073 -38 35.6875 C-37 34.6875 -37 34.6875 -34.625 34.625 C-33.75875 34.645625 -32.8925 34.66625 -32 34.6875 C-28.1872241 34.6875 -27.46908931 33.70226631 -24.75 31.125 C-22.57919338 29.01437906 -22.57919338 29.01437906 -21 26.6875 C-20.96821161 22.89415415 -20.96821161 22.89415415 -22 19.6875 C-20 17.6875 -20 17.6875 -17.5625 17.5625 C-16.716875 17.60375 -15.87125 17.645 -15 17.6875 C-11.1872241 17.6875 -10.46908931 16.70226631 -7.75 14.125 C-5.57631336 12.01197619 -5.57631336 12.01197619 -4 9.6875 C-4.05728998 5.94389659 -4.05728998 5.94389659 -5 2.6875 C-3.52086961 0.19633302 -2.90771491 -0.45433046 0 0 Z " transform="translate(82,94.3125)" style="fill: #C33437;"/><path d="M0 0 C5.27071102 -0.5270711 5.27071102 -0.5270711 8 0 C10.4375 2.9375 10.4375 2.9375 12 6 C13.6985258 7.6985258 16.11288508 7.41209976 18.4375 7.6875 C26.80489585 9.06050907 33.33601604 12.25216145 38.5 19.125 C41.25840769 23.67097915 41.85188565 28.10605233 42.515625 33.31640625 C43.14574179 36.8074565 44.30622755 38.70237056 47 41 C48.32 41.33 49.64 41.66 51 42 C51 44.97 51 47.94 51 51 C46.65636456 50.48898407 43.01668054 49.70656894 39 48 C38.50371094 48.54269531 38.00742188 49.08539063 37.49609375 49.64453125 C30.75218608 56.746749 26.4044364 59.10999257 16.625 59.5 C7.94366962 59.30289181 2.59155859 56.97786773 -3.375 50.75 C-7.77853411 45.09879789 -9.65098695 38.45562094 -9.33984375 31.32421875 C-8.16371091 23.28055162 -4.92956746 18.1850954 1.390625 13.1796875 C1.92171875 12.79039063 2.4528125 12.40109375 3 12 C2.505 10.948125 2.01 9.89625 1.5 8.8125 C0.17220212 5.74547391 -0.30715006 3.37865064 0 0 Z " transform="translate(146,69)" style="fill: #F3F0EF;"/><path d="M0 0 C5.17248722 2.89193469 7.98564544 6.50189408 9.70703125 12.1640625 C10.37729586 17.62193147 9.40101168 21.38441981 6.70703125 26.1640625 C2.47998288 30.61095736 -1.21049344 33.25053266 -7.48046875 33.5390625 C-12.80982463 33.46094491 -16.33902806 31.67173449 -20.29296875 28.1640625 C-24.4657515 23.63865022 -24.91790188 18.74643092 -24.6796875 12.75 C-23.93307202 7.75748033 -21.35804965 5.12523306 -17.73046875 1.8515625 C-12.54335315 -1.73951753 -5.90329966 -2.15213991 0 0 Z " transform="translate(170.29296875,86.8359375)" style="fill: #C33639;"/><path d="M0 0 C3.10442031 1.3904499 5.3656443 3.01571598 7.8125 5.375 C8.43769531 5.96023437 9.06289062 6.54546875 9.70703125 7.1484375 C11 9 11 9 10.953125 10.9609375 C9.70991476 13.6205922 8.05928023 15.22925693 5.9375 17.25 C5.20402344 17.95640625 4.47054687 18.6628125 3.71484375 19.390625 C3.14894531 19.92171875 2.58304688 20.4528125 2 21 C-1.39859703 19.53033642 -3.64963709 17.61962486 -6.25 15 C-6.95640625 14.29875 -7.6628125 13.5975 -8.390625 12.875 C-10 11 -10 11 -10 9 C-8.3203125 7.34375 -8.3203125 7.34375 -6.125 5.5 C-4.00964496 3.71066742 -1.95980876 1.95980876 0 0 Z " transform="translate(102,127)" style="fill: #E63438;"/><path d="M0 0 C3.80635497 3.20760251 7.54563567 6.40746109 11 10 C9.52278578 13.45201639 7.56205999 15.64961936 4.875 18.25 C4.15054688 18.95640625 3.42609375 19.6628125 2.6796875 20.390625 C2.12539062 20.92171875 1.57109375 21.4528125 1 22 C-2.80635497 18.79239749 -6.54563567 15.59253891 -10 12 C-8.52278578 8.54798361 -6.56205999 6.35038064 -3.875 3.75 C-3.15054688 3.04359375 -2.42609375 2.3371875 -1.6796875 1.609375 C-1.12539062 1.07828125 -0.57109375 0.5471875 0 0 Z " transform="translate(68,126)" style="fill: #E73438;"/><path d="M0 0 C3.80635497 3.20760251 7.54563567 6.40746109 11 10 C9.52278578 13.45201639 7.56205999 15.64961936 4.875 18.25 C4.15054688 18.95640625 3.42609375 19.6628125 2.6796875 20.390625 C2.12539062 20.92171875 1.57109375 21.4528125 1 22 C-2.80635497 18.79239749 -6.54563567 15.59253891 -10 12 C-8.52278578 8.54798361 -6.56205999 6.35038064 -3.875 3.75 C-3.15054688 3.04359375 -2.42609375 2.3371875 -1.6796875 1.609375 C-1.12539062 1.07828125 -0.57109375 0.5471875 0 0 Z " transform="translate(85,109)" style="fill: #E73438;"/></svg>